<svg xmlns="http://www.w3.org/2000/svg" xmlns:xlink="http://www.w3.org/1999/xlink" viewBox="0 0 37.04 36.23"><defs><style>.cls-1{isolation:isolate;}.cls-11,.cls-2,.cls-3,.cls-4,.cls-5,.cls-6{opacity:0.57;}.cls-10,.cls-11,.cls-2,.cls-3,.cls-4,.cls-5,.cls-6,.cls-7,.cls-8,.cls-9{mix-blend-mode:screen;}.cls-2{fill:url(#Безымянный_градиент_9);}.cls-3{fill:url(#Безымянный_градиент_9-2);}.cls-4{fill:url(#Безымянный_градиент_9-3);}.cls-5{fill:url(#Безымянный_градиент_9-4);}.cls-6{fill:url(#Безымянный_градиент_9-5);}.cls-10,.cls-7,.cls-8,.cls-9{opacity:0.88;}.cls-7{fill:url(#Безымянный_градиент_9-6);}.cls-8{fill:url(#Безымянный_градиент_9-7);}.cls-9{fill:url(#Безымянный_градиент_9-8);}.cls-10{fill:url(#Безымянный_градиент_9-9);}.cls-11{fill:url(#Безымянный_градиент_9-10);}</style><radialGradient id="Безымянный_градиент_9" cx="18.52" cy="18.12" r="5.78" gradientTransform="translate(0 1.07)" gradientUnits="userSpaceOnUse"><stop offset="0" stop-color="#fbb040"/><stop offset="0.09" stop-color="#fcbe4c" stop-opacity="0.86"/><stop offset="0.23" stop-color="#fdd25c" stop-opacity="0.66"/><stop offset="0.37" stop-color="#fee269" stop-opacity="0.49"/><stop offset="0.5" stop-color="#feef74" stop-opacity="0.37"/><stop offset="0.63" stop-color="#fff87b" stop-opacity="0.27"/><stop offset="0.75" stop-color="#fffd7f" stop-opacity="0.22"/><stop offset="0.86" stop-color="#ffff81" stop-opacity="0.2"/></radialGradient><radialGradient id="Безымянный_градиент_9-2" cx="18.52" cy="18.12" r="17.56" xlink:href="#Безымянный_градиент_9"/><radialGradient id="Безымянный_градиент_9-3" cx="18.52" cy="18.12" r="17.56" xlink:href="#Безымянный_градиент_9"/><radialGradient id="Безымянный_градиент_9-4" cx="18.52" cy="18.12" r="8.57" xlink:href="#Безымянный_градиент_9"/><radialGradient id="Безымянный_градиент_9-5" cx="18.52" cy="18.12" r="8.54" xlink:href="#Безымянный_градиент_9"/><radialGradient id="Безымянный_градиент_9-6" cx="18.52" cy="18.12" r="5.12" xlink:href="#Безымянный_градиент_9"/><radialGradient id="Безымянный_градиент_9-7" cx="18.52" cy="18.12" r="5.12" xlink:href="#Безымянный_градиент_9"/><radialGradient id="Безымянный_градиент_9-8" cx="18.52" cy="18.12" r="2.29" xlink:href="#Безымянный_градиент_9"/><radialGradient id="Безымянный_градиент_9-9" cx="18.52" cy="18.12" r="2.28" xlink:href="#Безымянный_градиент_9"/><radialGradient id="Безымянный_градиент_9-10" cx="18.52" cy="18.12" r="11.09" xlink:href="#Безымянный_градиент_9"/></defs><title>avia-light-img</title><g class="cls-1"><g id="Слой_2" data-name="Слой 2"><g id="Слой_1-2" data-name="Слой 1"><path class="cls-2" d="M16.41,12.28c-2.77,1-4.06,4.41-2.89,7.64s4.35,5,7.12,4,4.05-4.42,2.88-7.64S19.17,11.28,16.41,12.28Z"/><path class="cls-3" d="M35.49,0c-.33-.3-8.84,8.33-19,19.29S7.6,29.73,3,34.57C-2.19,40,7.48,31.35,17.65,20.39S35.82.31,35.49,0Z"/><path class="cls-4" d="M0,1.58c-.3.33,8.54,8.64,19.74,18.55s10.64,8.63,15.59,13.13c5.54,5-3.32-4.41-14.52-14.32S.3,1.24,0,1.58Z"/><path class="cls-5" d="M6.41,18.12c0,.2,5.42.35,12.11.35s12.11-.17,12.11-.36-5.42-.35-12.11-.35S6.41,17.92,6.41,18.12Z"/><path class="cls-6" d="M18.54,6c-.2,0-.36,5.41-.38,12.07s.15,12.09.34,12.08.37-5.4.38-12.07S18.74,6,18.54,6Z"/><path class="cls-7" d="M13.45,13.47c-.84.9.76,3.72,3.56,6.29s5.75,3.92,6.58,3-.75-3.71-3.56-6.28S14.28,12.56,13.45,13.47Z"/><path class="cls-8" d="M13.44,22.76c.83.91,3.78-.44,6.59-3s4.41-5.38,3.57-6.29-3.78.44-6.59,3S12.6,21.85,13.44,22.76Z"/><path class="cls-9" d="M15.44,18.12c0,.54,1.38,1,3.08,1s3.08-.45,3.08-1-1.38-1-3.08-1S15.44,17.57,15.44,18.12Z"/><path class="cls-10" d="M18.37,15.05c-.55,0-.93,1.42-.85,3.12s.6,3,1.15,3,.93-1.42.85-3.11S18.92,15,18.37,15.05Z"/><path class="cls-11" d="M29.62,18.12a11.11,11.11,0,1,0-11.1,11.07A11.09,11.09,0,0,0,29.62,18.12Z"/></g></g></g></svg>